<svg width="191.7" height="71.8" viewBox="0 0 191.7 71.8" xmlns="http://www.w3.org/2000/svg"><g id="svgGroup" stroke-linecap="round" fill-rule="evenodd" font-size="9pt" stroke="#000" stroke-width="0.05mm" fill="#000" style="stroke:#000;stroke-width:0.05mm;fill:#000"><path d="M 50.9 42.5 L 58.6 32.7 Q 61.5 28.9 66.4 23.7 A 356.143 356.143 0 0 1 71.032 18.882 Q 73.432 16.43 76.151 13.729 A 632.218 632.218 0 0 1 78 11.9 Q 80.9 9.1 84.6 7.1 Q 88.3 5.1 90.9 5.1 Q 94.5 5.1 94.5 8.9 Q 94.5 12.2 91.8 17.9 A 308.981 308.981 0 0 1 88.847 23.952 Q 87.511 26.62 85.999 29.532 A 564.833 564.833 0 0 1 82.8 35.6 Q 81.1 38.7 80.5 40.9 A 70.968 70.968 0 0 1 80.289 41.658 Q 79.863 43.157 79.7 43.4 A 29.663 29.663 0 0 1 79.891 43.165 Q 80.372 42.576 81.557 41.161 A 783.851 783.851 0 0 1 81.65 41.05 Q 82.837 39.634 84.756 37.426 A 597.491 597.491 0 0 1 86 36 Q 89.4 32.2 94.1 27.65 Q 98.8 23.1 104.9 17.9 L 120.9 4.7 A 10.134 10.134 0 0 1 121.937 3.927 Q 123.222 3.1 124.3 3.1 A 1.912 1.912 0 0 1 125.905 3.925 Q 126.128 4.224 126.302 4.632 A 4.645 4.645 0 0 1 126.35 4.75 Q 126.792 5.872 127.257 7.432 A 61.484 61.484 0 0 1 127.7 9 Q 128.194 10.68 123.025 15.973 A 72.804 72.804 0 0 1 122.9 16.1 Q 110.4 28.9 101.3 44.7 A 137.645 137.645 0 0 0 97.865 51.099 Q 93 60.824 93 65.8 A 6.628 6.628 0 0 0 93.067 66.786 Q 93.258 68.049 93.995 68.479 A 1.766 1.766 0 0 0 94.9 68.7 A 3.091 3.091 0 0 0 95.536 68.614 Q 97.075 68.274 100.9 66.6 A 126.547 126.547 0 0 1 102.599 65.846 Q 104.853 64.866 105.948 64.525 A 6.397 6.397 0 0 1 106.4 64.4 A 1.594 1.594 0 0 1 106.595 64.493 Q 106.804 64.611 106.87 64.759 A 0.343 0.343 0 0 1 106.9 64.9 Q 106.9 66.126 103.359 68.154 A 41.069 41.069 0 0 1 101.6 69.1 Q 96.689 71.65 93.295 71.792 A 9.453 9.453 0 0 1 92.9 71.8 A 5.582 5.582 0 0 1 92.075 71.744 Q 91.084 71.595 90.616 71.053 A 1.557 1.557 0 0 1 90.5 70.9 A 10.011 10.011 0 0 1 88.867 66.753 A 13.373 13.373 0 0 1 88.7 64.6 A 23.354 23.354 0 0 1 89.428 59.17 Q 90.773 53.603 94.603 46.011 A 134.123 134.123 0 0 1 97.9 39.9 Q 102.417 32.167 110.686 20.331 A 680.978 680.978 0 0 1 116.1 12.7 Q 110.9 17 104.8 22.6 Q 98.7 28.2 91.7 35 Q 85.444 41.119 80.771 46.222 A 165.244 165.244 0 0 0 76.85 50.65 Q 72.111 56.214 69.58 60.181 A 37.007 37.007 0 0 0 68.6 61.8 A 13.763 13.763 0 0 1 67.186 63.911 Q 66.317 64.963 65.348 65.588 A 5.524 5.524 0 0 1 62.3 66.5 A 3.567 3.567 0 0 1 61.701 66.454 Q 60.631 66.271 60.601 65.354 A 1.638 1.638 0 0 1 60.6 65.3 A 1.159 1.159 0 0 1 60.706 64.825 Q 60.778 64.663 60.9 64.5 Q 62.421 62.085 64.742 58.269 A 964.418 964.418 0 0 0 65.3 57.35 A 1264.064 1264.064 0 0 0 67.466 53.767 Q 69.388 50.575 71.7 46.7 A 543.6 543.6 0 0 0 76.719 37.782 Q 82.045 28.092 85.359 20.941 A 135.709 135.709 0 0 0 87.2 16.8 A 45.427 45.427 0 0 0 87.939 14.858 Q 88.895 12.144 88.9 10.716 A 4.263 4.263 0 0 0 88.9 10.7 A 3.445 3.445 0 0 0 88.858 10.136 Q 88.691 9.136 87.86 9.101 A 1.452 1.452 0 0 0 87.8 9.1 Q 86.408 9.1 83.551 11.427 A 33.485 33.485 0 0 0 83.1 11.8 A 139.596 139.596 0 0 0 74.49 19.708 Q 70.209 23.956 65.59 29.118 A 311.603 311.603 0 0 0 58.2 37.7 Q 52.4 44.6 48.05 50.45 Q 43.7 56.3 40.7 61 Q 38.525 64.353 38.321 65.982 A 2.569 2.569 0 0 0 38.3 66.3 A 1.243 1.243 0 0 0 38.342 66.633 A 0.821 0.821 0 0 0 38.75 67.15 L 39.2 67.4 Q 39.2 67.488 37.83 68.564 A 108.584 108.584 0 0 1 37.4 68.9 A 7.614 7.614 0 0 1 34.716 69.656 A 9.35 9.35 0 0 1 33.8 69.7 A 13.52 13.52 0 0 1 32.676 69.658 Q 29.953 69.429 30.254 67.978 A 1.811 1.811 0 0 1 30.3 67.8 Q 31.516 63.892 37.633 54.48 A 262.106 262.106 0 0 1 39.6 51.5 A 978.356 978.356 0 0 0 43.762 45.271 Q 49.38 36.785 52.013 32.321 A 73.317 73.317 0 0 0 53 30.6 Q 58.595 20.496 59.518 13.809 A 18.38 18.38 0 0 0 59.7 11.3 A 15.094 15.094 0 0 0 59.5 8.75 Q 58.979 5.718 57.1 4.2 Q 55.233 2.692 51.975 2.267 A 21.502 21.502 0 0 0 49.2 2.1 A 30.723 30.723 0 0 0 37.347 4.606 Q 33.172 6.341 28.902 9.28 A 63.453 63.453 0 0 0 25 12.2 Q 19.6 16.6 14.9 22.15 A 56.67 56.67 0 0 0 8.915 30.636 A 50.084 50.084 0 0 0 7.3 33.7 A 30.077 30.077 0 0 0 5.048 39.973 A 24.34 24.34 0 0 0 4.4 45.5 A 15.95 15.95 0 0 0 4.865 49.537 Q 6.216 54.685 11.491 55.668 A 14.805 14.805 0 0 0 14.2 55.9 A 25.415 25.415 0 0 0 22.019 54.757 A 19.988 19.988 0 0 0 32 47.6 A 15.849 15.849 0 0 0 33.317 45.478 Q 33.926 44.28 34.193 43.14 A 7.626 7.626 0 0 0 34.4 41.4 A 4.481 4.481 0 0 0 34.332 40.586 Q 34.25 40.146 34.072 39.814 A 1.809 1.809 0 0 0 33.4 39.1 Q 33.317 39.017 33.303 38.866 A 0.703 0.703 0 0 1 33.3 38.8 A 0.366 0.366 0 0 1 33.358 38.59 Q 33.487 38.4 33.9 38.4 Q 36.182 38.4 36.461 41.02 A 7.384 7.384 0 0 1 36.5 41.8 A 6.485 6.485 0 0 1 36.297 43.335 Q 35.952 44.745 35.021 46.512 A 24.394 24.394 0 0 1 34.7 47.1 Q 32.4 51.1 27.8 53.9 Q 22 57.5 15 57.5 A 17.407 17.407 0 0 1 10.1 56.844 A 13.303 13.303 0 0 1 4.1 53.2 A 14.574 14.574 0 0 1 0.298 45.478 A 20.605 20.605 0 0 1 0 41.9 A 28.015 28.015 0 0 1 3.532 28.696 Q 8.213 19.867 19.096 10.827 A 109.09 109.09 0 0 1 20.6 9.6 A 33.919 33.919 0 0 1 25.624 6.337 A 43.265 43.265 0 0 1 29.65 4.45 Q 34.9 2.3 40.5 1.15 Q 46.1 0 50.8 0 Q 57.6 0 61.15 2.25 A 7.177 7.177 0 0 1 64.201 6.371 Q 64.591 7.644 64.676 9.204 A 16.417 16.417 0 0 1 64.7 10.1 A 23.83 23.83 0 0 1 64.157 14.887 Q 63.167 19.681 60.369 26.028 A 103.985 103.985 0 0 1 59 29 A 43.515 43.515 0 0 1 57.909 31.07 Q 55.724 34.997 50.9 42.5 Z M 131.56 70.965 A 33.579 33.579 0 0 0 138.3 71.6 A 39.324 39.324 0 0 0 142.12 71.41 A 47.315 47.315 0 0 0 148.8 70.25 Q 154.3 68.9 159.65 66.5 Q 165 64.1 169.7 61 A 52.009 52.009 0 0 0 172.778 58.81 A 42.688 42.688 0 0 0 177.8 54.3 A 5.462 5.462 0 0 0 177.936 54.16 Q 178.291 53.778 178.515 53.386 A 2.762 2.762 0 0 0 178.9 52 A 2.078 2.078 0 0 0 178.883 51.72 Q 178.798 51.1 178.3 51.1 A 0.92 0.92 0 0 0 178.062 51.135 Q 177.453 51.298 176.454 52.243 A 16.456 16.456 0 0 0 175.8 52.9 Q 169.5 59.9 160.6 64.05 Q 151.7 68.2 142.2 68.2 A 32.899 32.899 0 0 1 137.558 67.884 A 25.178 25.178 0 0 1 130.85 66 A 20.961 20.961 0 0 1 130.24 65.717 A 17.447 17.447 0 0 1 123.1 59.55 A 16.39 16.39 0 0 1 120.827 54.142 A 22.094 22.094 0 0 1 120.3 49.2 A 28.195 28.195 0 0 1 121.417 41.493 Q 122.643 37.166 125.216 32.632 A 63.014 63.014 0 0 1 130.7 24.6 Q 135.9 18 142.5 12.9 Q 149.1 7.8 156.65 4.9 Q 164.2 2 171.9 2 Q 178.7 2 183.1 5 A 9.603 9.603 0 0 1 187.07 10.78 A 15.086 15.086 0 0 1 187.5 14.5 Q 187.5 18.5 185.45 22.15 A 22.746 22.746 0 0 1 184.706 23.383 A 24.498 24.498 0 0 1 180 28.7 Q 176.6 31.6 172.55 33.3 A 23.841 23.841 0 0 1 171.002 33.889 A 20.085 20.085 0 0 1 164.5 35 A 15.293 15.293 0 0 1 161.584 34.734 A 11.023 11.023 0 0 1 157 32.75 A 9.521 9.521 0 0 1 156.097 31.984 A 6.434 6.434 0 0 1 154 27.2 Q 154 23.822 157.02 20.498 A 22.621 22.621 0 0 1 159.6 18.1 A 5.937 5.937 0 0 0 159.729 18.05 Q 161.2 17.459 161.2 16.5 A 0.56 0.56 0 0 0 161.196 16.431 Q 161.164 16.174 160.883 16.117 A 0.917 0.917 0 0 0 160.7 16.1 Q 160.174 16.1 159.365 16.609 A 8.412 8.412 0 0 0 158.8 17 A 27.103 27.103 0 0 0 155.697 19.699 Q 151.9 23.594 151.9 27.6 A 7.466 7.466 0 0 0 153.794 32.64 A 11.011 11.011 0 0 0 156 34.55 A 15.696 15.696 0 0 0 161.416 36.82 A 21.702 21.702 0 0 0 166.1 37.3 Q 170.7 37.3 175.2 35.6 Q 179.7 33.9 183.45 30.9 Q 187.2 27.9 189.45 23.85 Q 191.7 19.8 191.7 15.1 Q 191.7 9.8 189 6.5 A 14.293 14.293 0 0 0 185.811 3.628 A 17.536 17.536 0 0 0 181.7 1.65 Q 177.1 0.1 171.4 0.1 A 46.238 46.238 0 0 0 167.094 0.303 A 52.617 52.617 0 0 0 156.65 2.4 Q 149.1 4.7 142.25 8.8 Q 135.4 12.9 130.1 18.5 Q 123.6 25.4 119.35 33.6 Q 115.1 41.8 115.1 50.4 A 27.046 27.046 0 0 0 115.223 53.01 A 19.798 19.798 0 0 0 121.15 65.7 Q 125.215 69.664 131.56 70.965 Z" vector-effect="non-scaling-stroke"/></g></svg>